<svg viewBox="0 0 256 256" xmlns="http://www.w3.org/2000/svg">
  <defs>
    <clipPath id="tile"><rect width="256" height="256" rx="56"></rect></clipPath>
    <linearGradient id="stemG" x1="0" y1="0" x2="0" y2="1">
      <stop offset="0%" stop-color="#1E3A8A"></stop>
      <stop offset="100%" stop-color="#0F2463"></stop>
    </linearGradient>
    <linearGradient id="bowlG" x1="0" y1="0" x2="1" y2="1">
      <stop offset="0%" stop-color="#60A5FA"></stop>
      <stop offset="100%" stop-color="#2563EB"></stop>
    </linearGradient>
    <linearGradient id="bgG" x1="0" y1="0" x2="1" y2="1">
      <stop offset="0%" stop-color="#f5f7fb"></stop>
      <stop offset="100%" stop-color="#dfe4ee"></stop>
    </linearGradient>
  </defs>
  
  <g clip-path="url(#tile)"><rect width="256" height="256" fill="url(#bgG)"></rect></g>
  
  <path d="M 66 52 H 100 V 202 a 6 6 0 0 1 -6 6 H 72 a 6 6 0 0 1 -6 -6 Z" fill="url(#stemG)"></path>
  
  <path d="M 66 52 H 140 a 48 48 0 0 1 48 48 v 8 a 48 48 0 0 1 -48 48 H 100 V 52 Z" fill="url(#bowlG)"></path>
  
  <path d="M 100 76 H 138 a 24 24 0 0 1 24 24 v 2 a 24 24 0 0 1 -24 24 H 134 L 114 150 L 120 124 H 100 Z" fill="#fff"></path>
  
  <circle cx="138" cy="100" r="9" fill="#2563EB"></circle>
</svg>