<svg xmlns="http://www.w3.org/2000/svg" viewBox="0 0 1024 1024" width="1024" height="1024"><defs><radialGradient id="gCanvas" cx="30%" cy="20%" r="120%"><stop offset="0" stop-color="#0a1030"></stop><stop offset=".7" stop-color="#05091f"></stop></radialGradient><linearGradient id="gNavy" x1="0" y1="0" x2="0" y2="1"><stop offset="0" stop-color="#0b1236"></stop><stop offset="1" stop-color="#070c26"></stop></linearGradient><linearGradient id="gBorder" x1="0" y1="0" x2="1" y2="1"><stop offset="0" stop-color="#38d8ff"></stop><stop offset=".5" stop-color="#4488ff"></stop><stop offset="1" stop-color="#3355dd"></stop></linearGradient><linearGradient id="gKey" x1="0" y1="0" x2="0" y2="1"><stop offset="0" stop-color="#b8f0ff"></stop><stop offset=".5" stop-color="#5aa0ff"></stop><stop offset="1" stop-color="#4a82ff"></stop></linearGradient><filter id="fGlow" x="-40%" y="-40%" width="180%" height="180%"><feGaussianBlur stdDeviation="7"></feGaussianBlur></filter><filter id="fBloom" x="-60%" y="-60%" width="220%" height="220%"><feGaussianBlur stdDeviation="9"></feGaussianBlur></filter><clipPath id="hexClip"><path d="M438 225 L374 114 Q356 83 320 83 L192 83 Q156 83 138 114 L74 225 Q56 256 74 287 L138 398 Q156 429 192 429 L320 429 Q356 429 374 398 L438 287 Q456 256 438 225 Z"></path></clipPath></defs><rect width="1024" height="1024" fill="url(#gCanvas)"></rect><g transform="translate(-115.5,-115.5) scale(2.451)"><path d="M438 225 L374 114 Q356 83 320 83 L192 83 Q156 83 138 114 L74 225 Q56 256 74 287 L138 398 Q156 429 192 429 L320 429 Q356 429 374 398 L438 287 Q456 256 438 225 Z" fill="url(#gNavy)"></path><g clip-path="url(#hexClip)"><path d="M400 112 H368 V96 H432 V144" stroke="#4488ff" stroke-width="3.2" fill="none" opacity="0.28" stroke-linecap="round" stroke-linejoin="round"></path><circle cx="368" cy="112" r="3.5" fill="#4488ff" opacity="0.36"></circle><circle cx="368" cy="96" r="3.5" fill="#4488ff" opacity="0.36"></circle><circle cx="432" cy="96" r="3.5" fill="#4488ff" opacity="0.36"></circle><circle cx="432" cy="144" r="4.5" fill="#4488ff" opacity="0.62"></circle><path d="M128 176 V112 H176 V96 H112" stroke="#38d8ff" stroke-width="3.2" fill="none" opacity="0.28" stroke-linecap="round" stroke-linejoin="round"></path><circle cx="128" cy="112" r="3.5" fill="#38d8ff" opacity="0.36"></circle><circle cx="176" cy="112" r="3.5" fill="#38d8ff" opacity="0.36"></circle><circle cx="176" cy="96" r="3.5" fill="#38d8ff" opacity="0.36"></circle><circle cx="112" cy="96" r="4.5" fill="#3355dd" opacity="0.62"></circle><path d="M368 128 V96 H440 V96" stroke="#4488ff" stroke-width="3.2" fill="none" opacity="0.28" stroke-linecap="round" stroke-linejoin="round"></path><circle cx="368" cy="96" r="3.5" fill="#4488ff" opacity="0.36"></circle><circle cx="440" cy="96" r="3.5" fill="#4488ff" opacity="0.36"></circle><circle cx="440" cy="96" r="4.5" fill="#4488ff" opacity="0.62"></circle><path d="M176 272 H74 V384 H74 V416" stroke="#38d8ff" stroke-width="3.2" fill="none" opacity="0.28" stroke-linecap="round" stroke-linejoin="round"></path><circle cx="74" cy="272" r="3.5" fill="#38d8ff" opacity="0.36"></circle><circle cx="74" cy="384" r="3.5" fill="#38d8ff" opacity="0.36"></circle><circle cx="74" cy="384" r="3.5" fill="#38d8ff" opacity="0.36"></circle><circle cx="74" cy="416" r="5" fill="#38d8ff" opacity="0.62"></circle><path d="M256 352 H352 V416 H272 V384" stroke="#4488ff" stroke-width="3.2" fill="none" opacity="0.28" stroke-linecap="round" stroke-linejoin="round"></path><circle cx="352" cy="352" r="3.5" fill="#4488ff" opacity="0.36"></circle><circle cx="352" cy="416" r="3.5" fill="#4488ff" opacity="0.36"></circle><circle cx="272" cy="416" r="3.5" fill="#4488ff" opacity="0.36"></circle><circle cx="272" cy="384" r="5" fill="#4488ff" opacity="0.62"></circle><path d="M400 256 H440 V144 H440 V112" stroke="#4488ff" stroke-width="3.2" fill="none" opacity="0.28" stroke-linecap="round" stroke-linejoin="round"></path><circle cx="440" cy="256" r="3.5" fill="#4488ff" opacity="0.36"></circle><circle cx="440" cy="144" r="3.5" fill="#4488ff" opacity="0.36"></circle><circle cx="440" cy="144" r="3.5" fill="#4488ff" opacity="0.36"></circle><circle cx="440" cy="112" r="5" fill="#4488ff" opacity="0.62"></circle><path d="M112 192 V128 H224 V176 H304" stroke="#38d8ff" stroke-width="3.2" fill="none" opacity="0.28" stroke-linecap="round" stroke-linejoin="round"></path><circle cx="112" cy="128" r="3.5" fill="#38d8ff" opacity="0.36"></circle><circle cx="224" cy="128" r="3.5" fill="#38d8ff" opacity="0.36"></circle><circle cx="224" cy="176" r="3.5" fill="#38d8ff" opacity="0.36"></circle><circle cx="304" cy="176" r="5" fill="#3355dd" opacity="0.62"></circle><path d="M416 192 H304 V320 H240 V224" stroke="#4488ff" stroke-width="3.2" fill="none" opacity="0.28" stroke-linecap="round" stroke-linejoin="round"></path><circle cx="304" cy="192" r="3.5" fill="#4488ff" opacity="0.36"></circle><circle cx="304" cy="320" r="3.5" fill="#4488ff" opacity="0.36"></circle><circle cx="240" cy="320" r="3.5" fill="#4488ff" opacity="0.36"></circle><circle cx="240" cy="224" r="4.5" fill="#4488ff" opacity="0.62"></circle><path d="M304 240 H416 V368 H384 V240" stroke="#4488ff" stroke-width="3.2" fill="none" opacity="0.28" stroke-linecap="round" stroke-linejoin="round"></path><circle cx="416" cy="240" r="3.5" fill="#4488ff" opacity="0.36"></circle><circle cx="416" cy="368" r="3.5" fill="#4488ff" opacity="0.36"></circle><circle cx="384" cy="368" r="3.5" fill="#4488ff" opacity="0.36"></circle><circle cx="384" cy="240" r="4.5" fill="#3355dd" opacity="0.62"></circle><path d="M224 304 V240 H176 V320" stroke="#38d8ff" stroke-width="3.2" fill="none" opacity="0.28" stroke-linecap="round" stroke-linejoin="round"></path><circle cx="224" cy="240" r="3.5" fill="#38d8ff" opacity="0.36"></circle><circle cx="176" cy="240" r="3.5" fill="#38d8ff" opacity="0.36"></circle><circle cx="176" cy="320" r="5" fill="#38d8ff" opacity="0.62"></circle><path d="M144 96 H96 V208 H144" stroke="#38d8ff" stroke-width="3.2" fill="none" opacity="0.28" stroke-linecap="round" stroke-linejoin="round"></path><circle cx="96" cy="96" r="3.5" fill="#38d8ff" opacity="0.36"></circle><circle cx="96" cy="208" r="3.5" fill="#38d8ff" opacity="0.36"></circle><circle cx="144" cy="208" r="4.5" fill="#38d8ff" opacity="0.62"></circle><path d="M416 304 V400 H440 V368 H440" stroke="#4488ff" stroke-width="3.2" fill="none" opacity="0.28" stroke-linecap="round" stroke-linejoin="round"></path><circle cx="416" cy="400" r="3.5" fill="#4488ff" opacity="0.36"></circle><circle cx="440" cy="400" r="3.5" fill="#4488ff" opacity="0.36"></circle><circle cx="440" cy="368" r="3.5" fill="#4488ff" opacity="0.36"></circle><circle cx="440" cy="368" r="5" fill="#4488ff" opacity="0.62"></circle><rect x="215" y="170" width="18" height="12" rx="3" fill="none" stroke="#38d8ff" stroke-width="2.4" opacity="0.3"></rect><rect x="119" y="122" width="18" height="12" rx="3" fill="none" stroke="#38d8ff" stroke-width="2.4" opacity="0.3"></rect><rect x="407" y="186" width="18" height="12" rx="3" fill="none" stroke="#4488ff" stroke-width="2.4" opacity="0.3"></rect><rect x="247" y="250" width="18" height="12" rx="3" fill="none" stroke="#4488ff" stroke-width="2.4" opacity="0.3"></rect><rect x="135" y="186" width="18" height="12" rx="3" fill="none" stroke="#38d8ff" stroke-width="2.4" opacity="0.3"></rect></g><g filter="url(#fBloom)" opacity=".5" fill="url(#gKey)"><rect x="150" y="196" width="150" height="120" rx="26"></rect><path d="M312 226 L372 196 L372 316 L312 286 Z"></path></g><g fill="url(#gKey)"><rect x="150" y="196" width="150" height="120" rx="26"></rect><path d="M312 226 L372 196 L372 316 L312 286 Z"></path></g><circle cx="200" cy="256" r="30" fill="none" stroke="#0a1230" stroke-width="10" opacity=".42"></circle><circle cx="272" cy="228" r="7" fill="#0a1230" opacity=".45"></circle><path d="M438 225 L374 114 Q356 83 320 83 L192 83 Q156 83 138 114 L74 225 Q56 256 74 287 L138 398 Q156 429 192 429 L320 429 Q356 429 374 398 L438 287 Q456 256 438 225 Z" fill="none" stroke="url(#gBorder)" stroke-width="12" filter="url(#fGlow)" opacity=".82"></path><path d="M438 225 L374 114 Q356 83 320 83 L192 83 Q156 83 138 114 L74 225 Q56 256 74 287 L138 398 Q156 429 192 429 L320 429 Q356 429 374 398 L438 287 Q456 256 438 225 Z" fill="none" stroke="url(#gBorder)" stroke-width="5"></path><circle cx="212" cy="83" r="7" fill="#38d8ff"></circle><circle cx="256" cy="83" r="7" fill="#4488ff"></circle><circle cx="300" cy="83" r="7" fill="#3355dd"></circle></g></svg>